<?xml version="1.0" encoding="UTF-8"?>
<svg width="231px" height="60px" viewBox="0 0 231 60" version="1.1" xmlns="http://www.w3.org/2000/svg" xmlns:xlink="http://www.w3.org/1999/xlink">
    <!-- Generator: Sketch 61.2 (89653) - https://sketch.com -->
    <title>Logo</title>
    <desc>Created with Sketch.</desc>
    <g id="Logo" stroke="none" stroke-width="1" fill="none" fill-rule="evenodd">
        <g id="Logo-/-PayLaterAdminLogo">
            <g id="Logo-/-Glasses" stroke-width="1" fill-rule="evenodd" transform="translate(12.000000, 13.000000)">
                <rect id="Rectangle" fill="#2299FA" x="34" y="9" width="11" height="10" rx="1"></rect>
                <path d="M19.4294061,36 C29.1333771,36 37,28.1259508 37,18.412819 C37,8.69968707 29.1333771,0.0474748837 19.4294061,0.0474748837 C13.8012381,0.0474748837 5.07457264,-0.66757227 1.85881217,3.45242392 C-0.4699752,6.43604013 0.0494223219,15.2109225 0.0494223219,19.2905733 C0.0494223219,29.0037052 9.72543502,36 19.4294061,36 Z" id="Oval" fill="#2299FA"></path>
                <path d="M60.4294061,36 C70.1333771,36 78,28.1259508 78,18.412819 C78,8.69968707 70.1333771,0.0474748837 60.4294061,0.0474748837 C54.8012381,0.0474748837 46.0745726,-0.66757227 42.8588122,3.45242392 C40.5300248,6.43604013 41.0494223,15.2109225 41.0494223,19.2905733 C41.0494223,29.0037052 50.725435,36 60.4294061,36 Z" id="Oval" fill="#2299FA" transform="translate(59.500000, 18.000000) scale(-1, 1) translate(-59.500000, -18.000000) "></path>
                <path d="M19.2786916,33 C27.4090457,33 34,26.4382924 34,18.3440158 C34,10.2497392 27.4090457,3.0395624 19.2786916,3.0395624 C14.5631995,3.0395624 7.25166897,2.44368977 4.55738317,5.87701993 C2.60623699,8.36336677 3.04140789,15.6757688 3.04140789,19.0754778 C3.04140789,27.1697543 11.1483374,33 19.2786916,33 Z" id="Oval" fill="#FFFFFF"></path>
                <path d="M60.2786916,33 C68.4090457,33 75,26.4382924 75,18.3440158 C75,10.2497392 68.4090457,3.0395624 60.2786916,3.0395624 C55.5631995,3.0395624 48.251669,2.44368977 45.5573832,5.87701993 C43.606237,8.36336677 44.0414079,15.6757688 44.0414079,19.0754778 C44.0414079,27.1697543 52.1483374,33 60.2786916,33 Z" id="Oval" fill="#FFFFFF" transform="translate(59.500000, 18.000000) scale(-1, 1) translate(-59.500000, -18.000000) "></path>
                <circle id="Oval" fill="#006BE3" cx="18.5" cy="18.5" r="12.5"></circle>
                <circle id="Oval" fill="#006BE3" cx="59.5" cy="18.5" r="12.5"></circle>
                <rect id="Rectangle" fill="#FFFFFF" x="33" y="12" width="13" height="4" rx="1"></rect>
                <path d="M49.0885821,14.7734846 L65.1378074,14.7296941 C65.6900901,14.7281872 66.1390253,15.1746791 66.1405322,15.7269618 C66.1405371,15.7287808 66.1405371,15.7305998 66.1405322,15.7324188 L66.1389539,16.3108605 C66.1374528,16.8610133 65.6918389,17.3066271 65.1416861,17.3081282 L49.0924609,17.3519187 C48.5401782,17.3534257 48.091243,16.9069337 48.0897361,16.354651 C48.0897311,16.352832 48.0897311,16.351013 48.0897361,16.349194 L48.0913144,15.7707524 C48.0928155,15.2205996 48.5384293,14.7749857 49.0885821,14.7734846 Z" id="Rectangle" fill="#FFFFFF" transform="translate(57.115134, 16.040806) rotate(-45.000000) translate(-57.115134, -16.040806) "></path>
                <path d="M49.7260098,10.7278303 L58.0398432,10.7051459 C58.5921259,10.703639 59.0410611,11.150131 59.042568,11.7024137 C59.042573,11.7042327 59.042573,11.7060517 59.042568,11.7078707 L59.0409897,12.2863123 C59.0394886,12.8364651 58.5938748,13.282079 58.043722,13.2835801 L49.7298885,13.3062645 C49.1776058,13.3077714 48.7286706,12.8612794 48.7271637,12.3089967 C48.7271588,12.3071777 48.7271588,12.3053587 48.7271637,12.3035397 L48.728742,11.7250981 C48.7302431,11.1749453 49.175857,10.7293314 49.7260098,10.7278303 Z" id="Rectangle" fill="#FFFFFF" transform="translate(53.884866, 12.005705) rotate(-45.000000) translate(-53.884866, -12.005705) "></path>
                <path d="M9.00158949,11.0254278 L17.3154229,11.0027434 C17.8677056,11.0012365 18.3166408,11.4477285 18.3181477,12.0000112 C18.3181527,12.0018302 18.3181527,12.0036492 18.3181477,12.0054682 L18.3165694,12.5839098 C18.3150683,13.1340626 17.8694545,13.5796765 17.3193017,13.5811776 L9.00546821,13.603862 C8.45318552,13.6053689 8.00425034,13.1588769 8.00274343,12.6065942 C8.00273847,12.6047752 8.00273847,12.6029562 8.00274343,12.6011372 L8.00432172,12.0226956 C8.00582282,11.4725428 8.45143668,11.0269289 9.00158949,11.0254278 Z" id="Rectangle" fill="#FFFFFF" transform="translate(13.160446, 12.303303) rotate(-45.000000) translate(-13.160446, -12.303303) "></path>
                <path d="M9.70710678,20.4178932 L21.4178932,8.70710678 C21.8084175,8.31658249 22.4415825,8.31658249 22.8321068,8.70710678 L23.2928932,9.16789322 C23.6834175,9.55841751 23.6834175,10.1915825 23.2928932,10.5821068 L11.5821068,22.2928932 C11.1915825,22.6834175 10.5584175,22.6834175 10.1678932,22.2928932 L9.70710678,21.8321068 C9.31658249,21.4415825 9.31658249,20.8084175 9.70710678,20.4178932 Z" id="Rectangle" fill="#FFFFFF"></path>
            </g>
            <text id="Pay-Later." font-family="Phosphate-Solid, Phosphate" font-size="26" font-weight="normal" fill="#4B5668">
                <tspan x="98" y="46">PaY Later . </tspan>
            </text>
            <path d="M100.523438,25.3359375 L101.796875,22.1328125 L106.695313,22.1328125 L107.953125,25.3359375 L109.726563,25.3359375 L105.210938,13.7734375 L103.585938,13.7734375 L99,25.3359375 L100.523438,25.3359375 Z M106.21875,20.9140625 L102.273438,20.9140625 L104.25,15.9296875 L106.21875,20.9140625 Z M114.0625,25.53125 C115.322917,25.53125 116.265625,24.9348958 116.890625,23.7421875 L116.890625,23.7421875 L116.890625,25.3359375 L118.4375,25.3359375 L118.4375,13 L116.890625,13 L116.890625,17.8203125 C116.229167,17.0494792 115.395833,16.6640625 114.390625,16.6640625 C113.307292,16.6640625 112.433594,17.09375 111.769531,17.953125 C111.105469,18.8125 110.773438,19.9479167 110.773438,21.359375 C110.773438,22.6510417 111.066406,23.6692708 111.652344,24.4140625 C112.238281,25.1588542 113.041667,25.53125 114.0625,25.53125 Z M114.382813,24.1796875 C113.070313,24.1796875 112.414063,23.1875 112.414063,21.203125 C112.414063,18.9479167 113.151042,17.8203125 114.625,17.8203125 C115.338542,17.8203125 116.09375,18.171875 116.890625,18.875 L116.890625,18.875 L116.890625,22.78125 C116.072917,23.7135417 115.236979,24.1796875 114.382813,24.1796875 Z M123.054688,25.3359375 L123.054688,19.6484375 C123.940104,18.5130208 124.770833,17.9453125 125.546875,17.9453125 C126.328125,17.9453125 126.71875,18.4322917 126.71875,19.40625 L126.71875,19.40625 L126.71875,25.3359375 L128.265625,25.3359375 L128.265625,19.6484375 C129.140625,18.5182292 129.976563,17.953125 130.773438,17.953125 C131.539063,17.953125 131.921875,18.4375 131.921875,19.40625 L131.921875,19.40625 L131.921875,25.3359375 L133.46875,25.3359375 L133.46875,19.1640625 C133.46875,18.3723958 133.263021,17.7565104 132.851563,17.3164062 C132.440104,16.8763021 131.859375,16.65625 131.109375,16.65625 C129.942708,16.65625 128.994792,17.2526042 128.265625,18.4453125 C127.854167,17.2578125 127.080729,16.6640625 125.945313,16.6640625 C124.768229,16.6640625 123.804688,17.2578125 123.054688,18.4453125 L123.054688,18.4453125 L123.054688,16.8515625 L121.515625,16.8515625 L121.515625,25.3359375 L123.054688,25.3359375 Z M137.992188,15.3125 L137.992188,13.7734375 L136.453125,13.7734375 L136.453125,15.3125 L137.992188,15.3125 Z M137.992188,25.3359375 L137.992188,16.8515625 L136.453125,16.8515625 L136.453125,25.3359375 L137.992188,25.3359375 Z M142.617188,25.3359375 L142.617188,19.84375 C143.450521,18.609375 144.338542,17.9921875 145.28125,17.9921875 C145.708333,17.9921875 146.014323,18.1263021 146.199219,18.3945312 C146.384115,18.6627604 146.476563,19.1119792 146.476563,19.7421875 L146.476563,19.7421875 L146.476563,25.3359375 L148.015625,25.3359375 L148.015625,19.2421875 C148.015625,18.4557292 147.796875,17.8294271 147.359375,17.3632812 C146.921875,16.8971354 146.335938,16.6640625 145.601563,16.6640625 C144.424479,16.6640625 143.429688,17.2578125 142.617188,18.4453125 L142.617188,18.4453125 L142.617188,16.8515625 L141.078125,16.8515625 L141.078125,25.3359375 L142.617188,25.3359375 Z M154.697938,25.3359375 L154.697938,20.7421875 L155.4245,20.7421875 C156.903667,20.7421875 158.059917,20.3932292 158.89325,19.6953125 C159.726583,18.9973958 160.14325,18.0338542 160.14325,16.8046875 C160.14325,15.7265625 159.838563,14.9518229 159.229188,14.4804688 C158.619813,14.0091146 157.617208,13.7734375 156.221375,13.7734375 L156.221375,13.7734375 L153.072938,13.7734375 L153.072938,25.3359375 L154.697938,25.3359375 Z M155.362,19.5 L154.697938,19.5 L154.697938,15 L155.70575,15 C156.679708,15 157.375021,15.1484375 157.791688,15.4453125 C158.208354,15.7421875 158.416688,16.2369792 158.416688,16.9296875 C158.416688,17.7473958 158.151063,18.3802083 157.619813,18.828125 C157.088563,19.2760417 156.335958,19.5 155.362,19.5 L155.362,19.5 Z M165.283875,25.53125 C166.559917,25.53125 167.562521,25.1354167 168.291688,24.34375 C169.020854,23.5520833 169.385438,22.4635417 169.385438,21.078125 C169.385438,19.7239583 169.022156,18.6497396 168.295594,17.8554688 C167.569031,17.0611979 166.583354,16.6640625 165.338563,16.6640625 C164.093771,16.6640625 163.108094,17.0611979 162.381531,17.8554688 C161.654969,18.6497396 161.291688,19.7291667 161.291688,21.09375 C161.291688,22.4427083 161.653667,23.5195312 162.377625,24.3242188 C163.101583,25.1289062 164.070333,25.53125 165.283875,25.53125 Z M165.307313,24.375 C163.723979,24.375 162.932313,23.28125 162.932313,21.09375 C162.932313,18.9114583 163.734396,17.8203125 165.338563,17.8203125 C166.947938,17.8203125 167.752625,18.90625 167.752625,21.078125 C167.752625,23.2760417 166.937521,24.375 165.307313,24.375 Z M173.33075,25.3359375 L173.33075,19.7421875 C173.987,18.5859375 174.802104,18.0078125 175.776063,18.0078125 C175.979188,18.0078125 176.213563,18.0520833 176.479188,18.140625 L176.479188,18.140625 L176.479188,16.703125 C176.307313,16.6770833 176.14325,16.6640625 175.987,16.6640625 C174.825542,16.6640625 173.940125,17.2578125 173.33075,18.4453125 L173.33075,18.4453125 L173.33075,16.8515625 L171.791688,16.8515625 L171.791688,25.3359375 L173.33075,25.3359375 Z M180.885438,25.53125 C181.234396,25.53125 181.645854,25.4661458 182.119813,25.3359375 L182.119813,25.3359375 L182.119813,24.2734375 C181.828146,24.3411458 181.58075,24.375 181.377625,24.375 C180.419292,24.375 179.940125,23.8203125 179.940125,22.7109375 L179.940125,22.7109375 L179.940125,18.0078125 L182.158875,18.0078125 L182.158875,16.8515625 L179.940125,16.8515625 L179.940125,15.1640625 L178.401063,15.3125 L178.401063,16.8515625 L177.338563,16.8515625 L177.338563,18.0078125 L178.401063,18.0078125 L178.401063,22.9921875 C178.401063,23.7890625 178.619813,24.4114583 179.057313,24.859375 C179.494813,25.3072917 180.104188,25.53125 180.885438,25.53125 Z M190.072938,25.53125 C190.494813,25.53125 190.880229,25.4479167 191.229188,25.28125 L191.229188,25.28125 L191.119813,24.4296875 C190.989604,24.4505208 190.890646,24.4609375 190.822938,24.4609375 C190.281271,24.4609375 190.010438,24.0208333 190.010438,23.140625 L190.010438,23.140625 L190.010438,19.296875 C190.010438,18.3958333 189.785177,17.7317708 189.334656,17.3046875 C188.884135,16.8776042 188.184917,16.6640625 187.237,16.6640625 C186.33075,16.6640625 185.359396,16.875 184.322938,17.296875 L184.322938,17.296875 L184.322938,18.5703125 C185.265646,18.0703125 186.14325,17.8203125 186.95575,17.8203125 C187.966167,17.8203125 188.471375,18.3125 188.471375,19.296875 L188.471375,19.296875 L188.471375,20.3203125 L188.104188,20.3203125 C186.651063,20.3203125 185.535177,20.5690104 184.756531,21.0664062 C183.977885,21.5638021 183.588563,22.2760417 183.588563,23.203125 C183.588563,23.875 183.820333,24.4309896 184.283875,24.8710938 C184.747417,25.3111979 185.33075,25.53125 186.033875,25.53125 C186.888042,25.53125 187.776063,25.1067708 188.697938,24.2578125 C188.895854,25.1067708 189.354188,25.53125 190.072938,25.53125 Z M186.471375,24.2734375 C186.096375,24.2734375 185.778667,24.1458333 185.51825,23.890625 C185.257833,23.6354167 185.127625,23.3229167 185.127625,22.953125 C185.127625,22.4322917 185.388042,22.0117188 185.908875,21.6914062 C186.429708,21.3710938 187.112,21.2109375 187.95575,21.2109375 L187.95575,21.2109375 L188.471375,21.2265625 L188.471375,23.421875 C187.778667,23.9895833 187.112,24.2734375 186.471375,24.2734375 Z M194.697938,25.3359375 L194.697938,13 L193.158875,13 L193.158875,25.3359375 L194.697938,25.3359375 Z" id="AdminPortal" fill="#3B5672" fill-rule="nonzero"></path>
        </g>
    </g>
</svg>